<svg width="13" height="13" viewBox="0 0 13 13" fill="none" xmlns="http://www.w3.org/2000/svg">
<g clip-path="url(#clip0)">
<path d="M5.49999 0H0.50001C0.223858 0 0 0.223858 0 0.50001V5.50002C0 5.77618 0.223858 6.00003 0.50001 6.00003H5.50002C5.77618 6.00003 6.00003 5.77618 6.00003 5.50002V0.50001C6 0.223858 5.77615 0 5.49999 0ZM5.00001 5.00001H0.999991V0.999991H4.99998V5.00001H5.00001Z" fill="#757575"/>
<path d="M12.5 0H7.50001C7.22386 0 7 0.223858 7 0.50001V5.50002C7 5.77618 7.22386 6.00003 7.50001 6.00003H12.5C12.7762 6.00003 13.0001 5.77618 13.0001 5.50002V0.50001C13 0.223858 12.7762 0 12.5 0ZM12 5.00001H8.00002V0.999991H12V5.00001Z" fill="#757575"/>
<path d="M5.49999 7H0.50001C0.223858 7 0 7.22386 0 7.50001V12.5C0 12.7762 0.223858 13 0.50001 13H5.50002C5.77618 13 6.00003 12.7762 6.00003 12.5V7.50001C6 7.22386 5.77615 7 5.49999 7ZM5.00001 12H0.999991V8.00002H4.99998V12H5.00001Z" fill="#757575"/>
<path d="M12.5 7H7.50001C7.22386 7 7 7.22386 7 7.50001V12.5C7 12.7762 7.22386 13 7.50001 13H12.5C12.7762 13 13.0001 12.7762 13.0001 12.5V7.50001C13 7.22386 12.7762 7 12.5 7ZM12 12H8.00002V8.00002H12V12Z" fill="#757575"/>
</g>
<defs>
<clipPath id="clip0">
<rect width="13" height="13" fill="white"/>
</clipPath>
</defs>
</svg>
