<svg width="15" height="15" viewBox="0 0 15 15" fill="none" xmlns="http://www.w3.org/2000/svg">
<path d="M12.8027 0H2.19727C0.985693 0 0 0.985693 0 2.19727V12.8027C0 14.0143 0.985693 15 2.19727 15H12.8027C14.0143 15 15 14.0143 15 12.8027V2.19727C15 0.985693 14.0143 0 12.8027 0ZM8.81836 9.22852V14.1211H7.93945V9.22852C7.93945 8.98582 7.7427 8.78906 7.5 8.78906H6.18164V7.91016H7.5C7.7427 7.91016 7.93945 7.7134 7.93945 7.4707V5.71289C7.93945 4.50132 8.92515 3.51562 10.1367 3.51562H11.4551V4.39453H10.1367C9.40978 4.39453 8.81836 4.98595 8.81836 5.71289V7.4707C8.81836 7.7134 9.01512 7.91016 9.25781 7.91016H11.3317L11.112 8.78906H9.25781C9.01512 8.78906 8.81836 8.98582 8.81836 9.22852ZM14.1211 12.8027C14.1211 13.5297 13.5297 14.1211 12.8027 14.1211H9.69727V9.66797H11.4551C11.6567 9.66797 11.8325 9.53071 11.8814 9.3351L12.3209 7.57729C12.3902 7.2999 12.1799 7.03125 11.8945 7.03125H9.69727V5.71289C9.69727 5.47058 9.8944 5.27344 10.1367 5.27344H11.8945C12.1372 5.27344 12.334 5.07668 12.334 4.83398V3.07617C12.334 2.83348 12.1372 2.63672 11.8945 2.63672H10.1367C8.44052 2.63672 7.06055 4.01669 7.06055 5.71289V7.03125H5.74219C5.49949 7.03125 5.30273 7.22801 5.30273 7.4707V9.22852C5.30273 9.47121 5.49949 9.66504 5.74219 9.66504H7.06055V14.1211H2.19727C1.47032 14.1211 0.878906 13.5297 0.878906 12.8027V2.19727C0.878906 1.47032 1.47032 0.878906 2.19727 0.878906H12.8027C13.5297 0.878906 14.1211 1.47032 14.1211 2.19727V12.8027Z" fill="#C2C2C2"/>
</svg>
