<svg width="22" height="22" viewBox="0 0 22 22" fill="none" xmlns="http://www.w3.org/2000/svg">
<path d="M13.5398 6.363C13.5397 5.86069 13.3907 5.36968 13.1116 4.95206C12.8325 4.53444 12.4358 4.20896 11.9717 4.01678C11.5076 3.8246 10.997 3.77435 10.5043 3.87239C10.0117 3.97043 9.55914 4.21235 9.20397 4.56756C8.84881 4.92277 8.60695 5.37532 8.50898 5.86798C8.41101 6.36064 8.46133 6.87129 8.65357 7.33536C8.84581 7.79943 9.17134 8.19607 9.589 8.47513C10.0067 8.75419 10.4977 8.90314 11 8.90314C11.6734 8.90232 12.319 8.63443 12.7951 8.15822C13.2713 7.68202 13.5391 7.0364 13.5398 6.363ZM9.06177 6.363C9.06184 5.97967 9.17557 5.60496 9.38859 5.28627C9.6016 4.96757 9.90434 4.7192 10.2585 4.57255C10.6127 4.4259 11.0024 4.38757 11.3783 4.4624C11.7543 4.53722 12.0996 4.72185 12.3707 4.99293C12.6417 5.26401 12.8263 5.60937 12.901 5.98534C12.9758 6.36131 12.9374 6.75101 12.7907 7.10515C12.644 7.4593 12.3955 7.76199 12.0768 7.97495C11.7581 8.18791 11.3833 8.30158 11 8.30158C10.4861 8.30099 9.99337 8.09654 9.63 7.73311C9.26662 7.36967 9.06227 6.87693 9.06177 6.363Z" fill="#989898"/>
<path d="M21.197 20.8088L18.745 14.3806C18.7233 14.3237 18.6848 14.2748 18.6346 14.2402C18.5844 14.2056 18.5249 14.1871 18.464 14.1871H13.8234C13.8518 14.1409 13.8799 14.096 13.9083 14.0496C15.6939 11.0934 16.5925 8.50732 16.5796 6.36439C16.5798 4.88454 15.9922 3.46521 14.946 2.41863C13.8998 1.37205 12.4806 0.783942 11.0008 0.783691C9.52094 0.783441 8.10161 1.37106 7.05503 2.41729C6.00844 3.46352 5.42034 4.88265 5.42009 6.3625C5.4072 8.50732 6.30576 11.0937 8.09137 14.0496C8.11973 14.0965 8.14791 14.1414 8.17627 14.1871H3.53565C3.47472 14.1871 3.41524 14.2056 3.36506 14.2402C3.31489 14.2748 3.27638 14.3237 3.25463 14.3806L0.803008 20.8088C0.785539 20.8543 0.779422 20.9034 0.785185 20.9519C0.790948 21.0003 0.808418 21.0466 0.836085 21.0868C0.863753 21.1269 0.900785 21.1598 0.943983 21.1824C0.987181 21.2051 1.03525 21.2169 1.08402 21.2168H20.916C20.9648 21.2169 21.0128 21.2051 21.056 21.1824C21.0992 21.1598 21.1363 21.1269 21.1639 21.0868C21.1916 21.0466 21.2091 21.0003 21.2148 20.9519C21.2206 20.9034 21.2145 20.8543 21.197 20.8088ZM6.02182 6.36301C6.02193 5.70927 6.15081 5.06195 6.40109 4.45801C6.65137 3.85407 7.01816 3.30534 7.48051 2.84315C7.94285 2.38097 8.49171 2.01437 9.09573 1.7643C9.69976 1.51422 10.3471 1.38557 11.0009 1.38568C11.6546 1.3858 12.3019 1.51467 12.9059 1.76495C13.5098 2.01524 14.0585 2.38202 14.5207 2.84437C14.9829 3.30672 15.3495 3.85557 15.5996 4.4596C15.8497 5.06362 15.9783 5.71099 15.9782 6.36473C16.004 10.6372 12.0096 15.9067 11 17.1703C9.99041 15.9072 5.99587 10.6391 6.02182 6.36301ZM10.7709 17.8407C10.7991 17.8738 10.8342 17.9005 10.8738 17.9188C10.9134 17.9371 10.9564 17.9466 11 17.9466C11.0436 17.9466 11.0866 17.9371 11.1262 17.9188C11.1658 17.9005 11.2009 17.8738 11.2291 17.8407C12.0277 16.8678 12.7681 15.8486 13.4463 14.7883H18.2566L18.6416 15.7981L9.24155 19.1412L5.89102 14.7878H8.55337C9.2317 15.8483 9.97217 16.8677 10.7709 17.8407ZM9.23107 19.7828H9.23279L14.8406 17.7891L17.0156 20.6152H6.89219L9.23107 19.7828ZM3.7431 14.7878H5.13185L8.64532 19.3532L5.0973 20.6151H1.52059L3.7431 14.7878ZM17.7755 20.6152L15.4364 17.5761L18.8568 16.3598L20.4798 20.6152H17.7755Z" fill="#989898"/>
</svg>
