<svg width="10" height="10" viewBox="0 0 10 10" fill="none" xmlns="http://www.w3.org/2000/svg">
<g clip-path="url(#clip0)">
<path d="M8.75 1H4.25C3.8365 1 3.5 1.3365 3.5 1.75V3.25C3.5 3.388 3.612 3.5 3.75 3.5C3.888 3.5 4 3.388 4 3.25V1.75C4 1.612 4.112 1.5 4.25 1.5H8.032L6.111 2.3235C5.7685 2.4705 5.5 2.8775 5.5 3.25V8H4.25C4.112 8 4 7.888 4 7.75V6.25C4 6.112 3.888 6 3.75 6C3.612 6 3.5 6.112 3.5 6.25V7.75C3.5 8.1635 3.8365 8.5 4.25 8.5H5.5V9.25C5.5 9.4665 5.59 9.6505 5.7475 9.754C5.8345 9.811 5.9355 9.84 6.042 9.84C6.1285 9.84 6.219 9.821 6.308 9.783L8.889 8.677C9.2315 8.53 9.5 8.123 9.5 7.75V1.75C9.5 1.3365 9.1635 1 8.75 1ZM9 7.75C9 7.9255 8.853 8.148 8.692 8.217L6.111 9.323C6.063 9.3435 6.0315 9.342 6.0225 9.3365C6.0135 9.331 6 9.302 6 9.25V3.25C6 3.0745 6.147 2.852 6.308 2.783L8.9745 1.64C8.991 1.673 9 1.7105 9 1.75V7.75Z" fill="black"/>
<path d="M4.177 4.573L2.677 3.073C2.5795 2.9755 2.421 2.9755 2.3235 3.073C2.226 3.1705 2.226 3.329 2.3235 3.4265L3.3965 4.4995H0.25C0.112 4.4995 0 4.6115 0 4.7495C0 4.8875 0.112 4.9995 0.25 4.9995H3.3965L2.3235 6.0725C2.226 6.17 2.226 6.3285 2.3235 6.426C2.3725 6.475 2.4365 6.499 2.5005 6.499C2.5645 6.499 2.6285 6.4745 2.6775 6.426L4.1775 4.926C4.275 4.8285 4.275 4.67 4.1775 4.5725L4.177 4.573Z" fill="black"/>
</g>
<defs>
<clipPath id="clip0">
<rect width="10" height="10" fill="white"/>
</clipPath>
</defs>
</svg>
