<svg width="34" height="34" viewBox="0 0 34 34" fill="none" xmlns="http://www.w3.org/2000/svg">
<path d="M9.06036 15.5383C8.42346 15.5383 7.93525 15.743 7.93525 15.743L7.80041 16.5436C7.80041 16.5436 8.20313 16.3799 8.81294 16.3799C9.15908 16.3799 9.41192 16.4184 9.41192 16.6996C9.41192 16.8705 9.38121 16.9337 9.38121 16.9337C9.38121 16.9337 9.10852 16.9115 8.9821 16.9115C8.17845 16.9115 7.33447 17.2534 7.33447 18.2882C7.33447 19.1033 7.88769 19.2893 8.23143 19.2893C8.88699 19.2893 9.16992 18.8643 9.18437 18.8631L9.15367 19.2183H9.97176L10.3366 16.6598C10.336 15.5732 9.38904 15.5383 9.06036 15.5383ZM8.60165 18.5109C8.3133 18.5109 8.23805 18.2912 8.23805 18.16C8.23805 17.9059 8.3759 17.6001 9.05675 17.6001C9.21567 17.6007 9.23252 17.617 9.25901 17.6218C9.27707 17.7783 9.16149 18.5109 8.60165 18.5109Z" fill="black"/>
<path d="M12.0148 16.3961C12.1454 16.3961 12.6493 16.4377 12.6493 16.4377L12.7667 15.6178C12.7667 15.6178 12.4404 15.5449 11.9094 15.5449C11.222 15.5449 10.5249 15.8194 10.5249 16.7579C10.5249 17.8222 11.6879 17.7139 11.6879 18.1629C11.6879 18.4615 11.3628 18.4862 11.1124 18.4862C10.6784 18.4862 10.2883 18.3381 10.2871 18.3441L10.1631 19.1574C10.1854 19.1634 10.4262 19.2706 11.2057 19.2706C11.4146 19.2706 12.6107 19.3248 12.6107 18.0901C12.6107 16.9355 11.5037 17.1637 11.5037 16.6995C11.5037 16.4684 11.6837 16.3961 12.0148 16.3961Z" fill="black"/>
<path d="M13.9698 16.5011H14.4616L14.5802 15.627H14.1166L14.2112 15.0852H13.2823C13.2618 15.1051 12.7339 18.1409 12.7339 18.5093C12.7339 19.0577 13.0415 19.3009 13.4743 19.2967C13.8132 19.2943 14.0775 19.2004 14.1708 19.1745L14.287 18.3847C14.2232 18.3847 14.1299 18.4124 14.0474 18.4124C13.7241 18.4124 13.6886 18.2396 13.7091 18.1126L13.9698 16.5011Z" fill="black"/>
<path d="M17.8627 11.4299H16.2049C15.9821 11.7309 15.7726 12.0512 15.583 12.3642H18.5406C18.3353 12.0379 18.1083 11.7261 17.8627 11.4299Z" fill="black"/>
<path d="M30.798 21.9392C30.7799 21.9121 30.7649 21.8917 30.7528 21.879C30.7462 21.873 30.7378 21.8664 30.727 21.8634C30.7528 21.8616 30.7745 21.8519 30.7902 21.8357C30.8052 21.8194 30.8136 21.8002 30.8136 21.7779C30.8136 21.7622 30.8088 21.7472 30.7998 21.7334C30.7908 21.7195 30.7775 21.7093 30.7613 21.7039C30.7462 21.6978 30.7203 21.6948 30.6848 21.6948H30.5801V21.9988H30.6294V21.87H30.6577C30.6746 21.87 30.6884 21.8736 30.6963 21.8808C30.7089 21.8911 30.727 21.9145 30.748 21.9513L30.7745 21.9994H30.8353L30.798 21.9392ZM30.6884 21.8297H30.6282V21.7382H30.6848C30.7083 21.7382 30.724 21.74 30.733 21.7436C30.7426 21.7472 30.7486 21.7526 30.7541 21.7592C30.7589 21.7665 30.7613 21.7743 30.7613 21.7827C30.7613 21.7966 30.7565 21.8086 30.7462 21.817C30.736 21.8249 30.7161 21.8297 30.6884 21.8297Z" fill="black"/>
<path d="M19.0432 13.281H15.0659C14.8118 13.762 14.6433 14.1256 14.5957 14.2159H19.42C19.311 13.8944 19.1858 13.5832 19.0432 13.281Z" fill="black"/>
<path d="M6.19596 14.7986L5.28035 17.5135L5.23279 14.7986H3.87712L3.13428 19.2226H4.03063L4.59589 15.8876L4.67897 19.2226H5.31887L6.51261 15.8876L5.98346 19.2226H6.9346L7.66721 14.7986H6.19596Z" fill="black"/>
<path d="M24.1206 15.5383C23.4825 15.5383 22.9949 15.743 22.9949 15.743L22.8595 16.5436C22.8595 16.5436 23.2628 16.3799 23.872 16.3799C24.2182 16.3799 24.4716 16.4184 24.4716 16.6996C24.4716 16.8705 24.4397 16.9337 24.4397 16.9337C24.4397 16.9337 24.1676 16.9115 24.04 16.9115C23.2369 16.9115 22.3936 17.2534 22.3936 18.2882C22.3936 19.1033 22.9474 19.2893 23.2905 19.2893C23.9455 19.2893 24.2284 18.8643 24.2434 18.8631L24.2127 19.2183H25.0302L25.395 16.6598C25.3968 15.5732 24.4493 15.5383 24.1206 15.5383ZM23.6631 18.5109C23.3742 18.5109 23.2995 18.2912 23.2995 18.16C23.2995 17.9059 23.4374 17.6001 24.1182 17.6001C24.2766 17.6007 24.2934 17.617 24.3205 17.6218C24.338 17.7783 24.2218 18.5109 23.6631 18.5109Z" fill="black"/>
<path d="M30.8274 18.815C30.8027 18.7693 30.7666 18.7344 30.7215 18.7103C30.6769 18.6856 30.6312 18.6736 30.583 18.6736C30.5366 18.6742 30.4903 18.6862 30.4445 18.7103C30.3994 18.7344 30.3645 18.7693 30.3392 18.815C30.3139 18.8602 30.3013 18.9072 30.3013 18.9559C30.3013 19.0047 30.3139 19.051 30.3392 19.0956C30.3639 19.1401 30.3988 19.1756 30.4433 19.2009C30.4885 19.2256 30.5348 19.2382 30.583 19.2382C30.6324 19.2382 30.6793 19.2256 30.7233 19.2009C30.7678 19.1756 30.8027 19.1401 30.8274 19.0956C30.8533 19.051 30.8647 19.0047 30.8647 18.9559C30.8647 18.9059 30.8527 18.859 30.8274 18.815ZM30.7883 19.0721C30.7678 19.1094 30.7389 19.1377 30.701 19.16C30.6637 19.1805 30.6251 19.1913 30.5848 19.1913C30.5439 19.1913 30.5047 19.1805 30.468 19.16C30.4301 19.1389 30.4018 19.11 30.3801 19.0721C30.3585 19.0342 30.3488 18.9956 30.3488 18.9553C30.3488 18.915 30.3591 18.8758 30.3813 18.8379C30.4024 18.8006 30.4307 18.7717 30.4692 18.7506C30.5078 18.7296 30.5457 18.7205 30.5848 18.7205C30.6239 18.7205 30.6625 18.7302 30.6992 18.7506C30.7377 18.7717 30.766 18.8 30.7871 18.8379C30.8081 18.8758 30.8196 18.915 30.8196 18.9553C30.8196 18.9956 30.8093 19.0348 30.7883 19.0721Z" fill="black"/>
<path d="M30.679 19.0515C30.6615 19.0232 30.6459 19.0034 30.6344 18.9913C30.6272 18.9847 30.6194 18.9793 30.6085 18.9757C30.6344 18.9739 30.6555 18.9642 30.6711 18.948C30.6862 18.9323 30.6952 18.9119 30.6952 18.8902C30.6952 18.8752 30.6904 18.8595 30.6808 18.8457C30.6711 18.8324 30.6585 18.8222 30.6435 18.8162C30.6284 18.8101 30.6019 18.8071 30.5664 18.8071H30.4604V19.1105H30.5098V18.9817H30.5381C30.5556 18.9817 30.5694 18.9853 30.5778 18.9919C30.5905 19.0028 30.6073 19.0256 30.6296 19.0636L30.6555 19.1111H30.7163L30.679 19.0515ZM30.5706 18.9402H30.511V18.8481H30.5664C30.5905 18.8481 30.6061 18.8499 30.6158 18.8529C30.6236 18.8571 30.6308 18.8613 30.6356 18.8691C30.641 18.877 30.6435 18.8836 30.6435 18.8938C30.6435 18.9071 30.638 18.9185 30.629 18.9269C30.6176 18.9372 30.5989 18.9402 30.5706 18.9402Z" fill="black"/>
<path d="M27.2775 15.5823C26.8615 15.5823 26.5527 16.1499 26.5527 16.1499L26.6358 15.628H25.7701L25.1904 19.2291H26.144C26.4155 17.6904 26.4648 16.4425 27.1096 16.6707C27.2233 16.0759 27.3329 15.8453 27.4563 15.5943C27.4563 15.5949 27.3985 15.5823 27.2775 15.5823Z" fill="black"/>
<path d="M29.6735 14.8033L29.473 16.0464C29.473 16.0464 29.1239 15.563 28.5761 15.563C27.7243 15.5636 27.0151 16.59 27.0151 17.7687C27.0151 18.5302 27.3938 19.2761 28.1667 19.2761C28.7236 19.2761 29.0318 18.8878 29.0318 18.8878L28.9914 19.2195H29.895L30.6054 14.8015L29.6735 14.8033ZM28.4954 18.3731C28.1607 18.3731 28.0042 18.0926 28.0042 17.6519C28.0042 16.9313 28.3275 16.4564 28.7362 16.4564C29.0697 16.457 29.2413 16.6863 29.2413 17.2269C29.2413 17.7175 28.9987 18.3731 28.4954 18.3731Z" fill="black"/>
<path d="M33.1247 5.98315H0.875283C0.391289 5.98315 0 6.37505 0 6.85844V27.1423C0 27.6257 0.391289 28.0175 0.875283 28.0175H33.1247C33.6087 28.0175 34 27.6257 34 27.1423V6.85844C34 6.37505 33.6087 5.98315 33.1247 5.98315ZM30.9473 21.9833C30.9221 22.029 30.8877 22.0639 30.8432 22.0886C30.7987 22.1133 30.7517 22.1259 30.7035 22.1259C30.6542 22.1259 30.6072 22.1133 30.5627 22.0886C30.5187 22.0639 30.4838 22.029 30.4579 21.9833C30.4333 21.9393 30.4206 21.8924 30.4206 21.8436C30.4206 21.7948 30.4333 21.7485 30.4585 21.7027C30.4832 21.657 30.5193 21.6227 30.5639 21.598C30.609 21.5745 30.6548 21.5619 30.7029 21.5619C30.7505 21.5619 30.7962 21.5745 30.8408 21.598C30.8859 21.6227 30.9215 21.657 30.9461 21.7027C30.9714 21.7485 30.9835 21.7954 30.9835 21.8436C30.9835 21.8918 30.9726 21.9405 30.9473 21.9833ZM31.5782 17.0006C31.5794 21.8195 27.675 25.7276 22.8555 25.7288C20.6017 25.7294 18.5465 24.8752 16.9982 23.472C15.4499 24.8728 13.3989 25.7264 11.1487 25.7264C6.33226 25.7264 2.42298 21.8177 2.42298 17.0006C2.42298 12.2028 6.30156 8.3056 11.0927 8.2743C11.1114 8.2743 11.1301 8.2743 11.1487 8.2743C13.3989 8.2743 15.4505 9.12791 16.9988 10.5287C18.5465 9.12731 20.5993 8.2731 22.8513 8.2725C27.6707 8.27069 31.5782 12.177 31.5794 16.9964C31.5782 16.9976 31.5782 16.9982 31.5782 17.0006Z" fill="black"/>
<path d="M16.105 22.5178C16.3813 22.8561 16.6739 23.1788 16.9971 23.4714C17.0043 23.4647 17.0122 23.4587 17.0194 23.4527C17.0194 23.4527 17.0188 23.4527 17.0188 23.4521H17.0206C17.3384 23.1625 17.6352 22.8507 17.9067 22.5178H16.105Z" fill="black"/>
<path d="M17.293 17.7284C17.293 17.7284 17.4152 17.1264 17.4152 16.8814C17.4152 16.2692 17.1106 15.5227 16.0908 15.5227C15.1565 15.5233 14.4648 16.5298 14.4648 17.6676C14.4648 18.9805 15.3311 19.2923 16.0697 19.2923C16.7512 19.2923 17.051 19.1394 17.051 19.1394L17.2147 18.2437C17.2147 18.2437 16.6964 18.4724 16.2281 18.4724C15.2306 18.4724 15.4051 17.7284 15.4051 17.7284H17.293ZM16.0938 16.3565C16.6181 16.3565 16.5212 16.9458 16.5212 16.9927H15.49C15.49 16.9319 15.5875 16.3565 16.0938 16.3565Z" fill="black"/>
<path d="M21.6502 15.6463C22.1227 15.6463 22.5026 15.9117 22.5026 15.9117L22.6543 14.9275C22.6543 14.9275 22.092 14.7 21.608 14.7C20.5359 14.7 19.4927 15.6306 19.4927 17.3782C19.4927 18.537 20.0555 19.3021 21.1644 19.3021C21.4774 19.3021 21.9771 19.1751 21.9771 19.1751L22.1432 18.1614C22.1432 18.1614 21.6881 18.3895 21.3751 18.3895C20.7153 18.3889 20.451 17.8856 20.451 17.3463C20.451 16.2489 21.0181 15.6463 21.6502 15.6463Z" fill="black"/>
<path d="M14.9399 20.6848C15.091 21.0093 15.2668 21.3181 15.4552 21.6191H18.5512C18.7391 21.3193 18.9082 21.0075 19.0593 20.6848H14.9399Z" fill="black"/>
<path d="M19.4759 15.5836C19.0599 15.5836 18.7517 16.1513 18.7517 16.1513L18.8354 15.6293H17.9703L17.3906 19.2304H18.3442C18.6145 17.6923 18.665 16.4438 19.3097 16.672C19.4229 16.0766 19.5319 15.846 19.6553 15.5944C19.6553 15.5944 19.5975 15.5824 19.4759 15.5836Z" fill="black"/>
</svg>
