<svg width="12" height="12" viewBox="0 0 12 12" fill="none" xmlns="http://www.w3.org/2000/svg">
<path d="M11.9268 11.2197L8.44084 7.73383C9.10202 6.91757 9.50001 5.87985 9.50001 4.75002C9.50001 2.13087 7.36914 0 4.74999 0C2.13085 0 0 2.13087 0 4.75002C0 7.36916 2.13087 9.50004 4.75002 9.50004C5.87985 9.50004 6.91757 9.10202 7.73383 8.44087L11.2197 11.9268C11.3174 12.0244 11.4757 12.0244 11.5733 11.9268L11.9268 11.5733C12.0244 11.4757 12.0244 11.3174 11.9268 11.2197ZM4.75002 8.50002C2.68215 8.50002 1.00001 6.81789 1.00001 4.75002C1.00001 2.68215 2.68215 1.00001 4.75002 1.00001C6.81789 1.00001 8.50002 2.68215 8.50002 4.75002C8.50002 6.81789 6.81789 8.50002 4.75002 8.50002Z" fill="#787878"/>
</svg>
