<svg width="16" height="16" viewBox="0 0 16 16" fill="none" xmlns="http://www.w3.org/2000/svg">
<g clip-path="url(#clip0)">
<path d="M8.09667 13C10.4113 13 9.586 11.5347 9.76467 11.1133C9.762 10.7987 9.75933 10.496 9.77 10.312C9.91667 10.3533 10.2627 10.5287 10.9773 11.2233C12.0807 12.3367 12.3627 13 13.254 13H14.8947C15.4147 13 15.6853 12.7847 15.8207 12.604C15.9513 12.4293 16.0793 12.1227 15.9393 11.6453C15.5733 10.496 13.4387 8.51133 13.306 8.302C13.326 8.26333 13.358 8.212 13.3747 8.18533H13.3733C13.7947 7.62867 15.4027 5.21933 15.6393 4.25533C15.64 4.254 15.6407 4.252 15.6407 4.25C15.7687 3.81 15.6513 3.52467 15.53 3.36333C15.3473 3.122 15.0567 3 14.664 3H13.0233C12.474 3 12.0573 3.27667 11.8467 3.78133C11.494 4.678 10.5033 6.522 9.76067 7.17467C9.738 6.25 9.75333 5.544 9.76533 5.01933C9.78933 3.996 9.86667 3 8.80467 3H6.226C5.56067 3 4.924 3.72667 5.61333 4.58933C6.216 5.34533 5.83 5.76667 5.96 7.864C5.45333 7.32067 4.552 5.85333 3.91467 3.978C3.736 3.47067 3.46533 3.00067 2.70333 3.00067H1.06267C0.397333 3.00067 0 3.36333 0 3.97067C0 5.33467 3.01933 13 8.09667 13ZM2.70333 4.00067C2.848 4.00067 2.86267 4.00067 2.97 4.30533C3.62267 6.22733 5.08667 9.07133 6.156 9.07133C6.95933 9.07133 6.95933 8.248 6.95933 7.938L6.95867 5.47C6.91467 4.65333 6.61733 4.24667 6.422 4L8.76067 4.00267C8.762 4.014 8.74733 6.73267 8.76733 7.39133C8.76733 8.32667 9.51 8.86267 10.6693 7.68933C11.8927 6.30867 12.7387 4.24467 12.7727 4.16067C12.8227 4.04067 12.866 4 13.0233 4H14.664H14.6707C14.67 4.002 14.67 4.004 14.6693 4.006C14.5193 4.706 13.0387 6.93667 12.5433 7.62933C12.5353 7.64 12.528 7.65133 12.5207 7.66267C12.3027 8.01867 12.1253 8.412 12.5507 8.96533H12.5513C12.59 9.012 12.6907 9.12133 12.8373 9.27333C13.2933 9.744 14.8573 11.3533 14.996 11.9933C14.904 12.008 14.804 11.9973 13.254 12.0007C12.924 12.0007 12.666 11.5073 11.6813 10.514C10.796 9.65267 10.2213 9.30067 9.698 9.30067C8.682 9.30067 8.756 10.1253 8.76533 11.1227C8.76867 12.204 8.762 11.862 8.76933 11.93C8.71 11.9533 8.54 12 8.09667 12C3.86667 12 1.112 5.286 1.006 4.00267C1.04267 3.99933 1.54733 4.00133 2.70333 4.00067Z" fill="#C6C6C6"/>
</g>
<defs>
<clipPath id="clip0">
<rect width="16" height="16" fill="white"/>
</clipPath>
</defs>
</svg>
